<mxfile host="app.diagrams.net" modified="2023-12-04T15:01:06.255Z" agent="Mozilla/5.0 (Windows NT 10.0; Win64; x64) AppleWebKit/537.36 (KHTML, like Gecko) Chrome/119.0.0.0 Safari/537.36" etag="V4Hh_LzxOfCf9OnUyl7o" version="22.1.5" type="device">
  <diagram name="Trang-1" id="JbxPiA4r1xwQFOYnrr0c">
    <mxGraphModel dx="2345" dy="985" grid="1" gridSize="10" guides="1" tooltips="1" connect="1" arrows="1" fold="1" page="1" pageScale="1" pageWidth="3300" pageHeight="4681" math="0" shadow="0">
      <root>
        <mxCell id="0" />
        <mxCell id="1" parent="0" />
        <mxCell id="P2aj0PHAmEPESpZ3v1qP-1" value="" style="rounded=0;whiteSpace=wrap;html=1;" parent="1" vertex="1">
          <mxGeometry x="1145" y="590" width="450" height="900" as="geometry" />
        </mxCell>
        <mxCell id="P2aj0PHAmEPESpZ3v1qP-3" value="" style="ellipse;whiteSpace=wrap;html=1;" parent="1" vertex="1">
          <mxGeometry x="1199" y="619" width="100" height="40" as="geometry" />
        </mxCell>
        <mxCell id="P2aj0PHAmEPESpZ3v1qP-4" value="Login" style="text;html=1;strokeColor=none;fillColor=none;align=center;verticalAlign=middle;whiteSpace=wrap;rounded=0;" parent="1" vertex="1">
          <mxGeometry x="1219" y="624" width="60" height="30" as="geometry" />
        </mxCell>
        <mxCell id="P2aj0PHAmEPESpZ3v1qP-5" value="manage&lt;br&gt;" style="shape=umlActor;verticalLabelPosition=bottom;verticalAlign=top;html=1;outlineConnect=0;" parent="1" vertex="1">
          <mxGeometry x="840" y="770" width="30" height="60" as="geometry" />
        </mxCell>
        <mxCell id="P2aj0PHAmEPESpZ3v1qP-7" value="" style="ellipse;whiteSpace=wrap;html=1;" parent="1" vertex="1">
          <mxGeometry x="1199" y="619" width="100" height="40" as="geometry" />
        </mxCell>
        <mxCell id="P2aj0PHAmEPESpZ3v1qP-8" value="Login" style="text;html=1;strokeColor=none;fillColor=none;align=center;verticalAlign=middle;whiteSpace=wrap;rounded=0;" parent="1" vertex="1">
          <mxGeometry x="1219" y="624" width="60" height="30" as="geometry" />
        </mxCell>
        <mxCell id="P2aj0PHAmEPESpZ3v1qP-9" value="" style="ellipse;whiteSpace=wrap;html=1;" parent="1" vertex="1">
          <mxGeometry x="1190" y="690" width="131" height="60" as="geometry" />
        </mxCell>
        <mxCell id="P2aj0PHAmEPESpZ3v1qP-10" value="manage room information&amp;nbsp;" style="text;html=1;strokeColor=none;fillColor=none;align=center;verticalAlign=middle;whiteSpace=wrap;rounded=0;" parent="1" vertex="1">
          <mxGeometry x="1225.5" y="705" width="60" height="30" as="geometry" />
        </mxCell>
        <mxCell id="P2aj0PHAmEPESpZ3v1qP-11" value="" style="ellipse;whiteSpace=wrap;html=1;" parent="1" vertex="1">
          <mxGeometry x="1380" y="650" width="100" height="40" as="geometry" />
        </mxCell>
        <mxCell id="P2aj0PHAmEPESpZ3v1qP-12" value="add room" style="text;html=1;strokeColor=none;fillColor=none;align=center;verticalAlign=middle;whiteSpace=wrap;rounded=0;" parent="1" vertex="1">
          <mxGeometry x="1400" y="655" width="60" height="30" as="geometry" />
        </mxCell>
        <mxCell id="P2aj0PHAmEPESpZ3v1qP-13" value="" style="ellipse;whiteSpace=wrap;html=1;" parent="1" vertex="1">
          <mxGeometry x="1380" y="700" width="100" height="40" as="geometry" />
        </mxCell>
        <mxCell id="P2aj0PHAmEPESpZ3v1qP-14" value="remove room" style="text;html=1;strokeColor=none;fillColor=none;align=center;verticalAlign=middle;whiteSpace=wrap;rounded=0;" parent="1" vertex="1">
          <mxGeometry x="1400" y="705" width="60" height="30" as="geometry" />
        </mxCell>
        <mxCell id="P2aj0PHAmEPESpZ3v1qP-15" value="" style="ellipse;whiteSpace=wrap;html=1;" parent="1" vertex="1">
          <mxGeometry x="1380" y="750" width="100" height="40" as="geometry" />
        </mxCell>
        <mxCell id="P2aj0PHAmEPESpZ3v1qP-16" value="update room" style="text;html=1;strokeColor=none;fillColor=none;align=center;verticalAlign=middle;whiteSpace=wrap;rounded=0;" parent="1" vertex="1">
          <mxGeometry x="1400" y="755" width="60" height="30" as="geometry" />
        </mxCell>
        <mxCell id="P2aj0PHAmEPESpZ3v1qP-17" value="" style="endArrow=classic;html=1;rounded=0;entryX=0;entryY=0.5;entryDx=0;entryDy=0;" parent="1" target="P2aj0PHAmEPESpZ3v1qP-11" edge="1">
          <mxGeometry width="50" height="50" relative="1" as="geometry">
            <mxPoint x="1321" y="720" as="sourcePoint" />
            <mxPoint x="1371" y="670" as="targetPoint" />
          </mxGeometry>
        </mxCell>
        <mxCell id="P2aj0PHAmEPESpZ3v1qP-18" value="" style="endArrow=classic;html=1;rounded=0;entryX=0;entryY=0.5;entryDx=0;entryDy=0;exitX=1;exitY=0.5;exitDx=0;exitDy=0;" parent="1" source="P2aj0PHAmEPESpZ3v1qP-9" target="P2aj0PHAmEPESpZ3v1qP-13" edge="1">
          <mxGeometry width="50" height="50" relative="1" as="geometry">
            <mxPoint x="1321" y="735" as="sourcePoint" />
            <mxPoint x="1380" y="685" as="targetPoint" />
          </mxGeometry>
        </mxCell>
        <mxCell id="P2aj0PHAmEPESpZ3v1qP-19" value="" style="endArrow=classic;html=1;rounded=0;entryX=0;entryY=0.5;entryDx=0;entryDy=0;exitX=1;exitY=0.5;exitDx=0;exitDy=0;" parent="1" source="P2aj0PHAmEPESpZ3v1qP-9" target="P2aj0PHAmEPESpZ3v1qP-15" edge="1">
          <mxGeometry width="50" height="50" relative="1" as="geometry">
            <mxPoint x="1299" y="790" as="sourcePoint" />
            <mxPoint x="1358" y="740" as="targetPoint" />
          </mxGeometry>
        </mxCell>
        <mxCell id="P2aj0PHAmEPESpZ3v1qP-20" value="show report" style="ellipse;whiteSpace=wrap;html=1;" parent="1" vertex="1">
          <mxGeometry x="1176.5" y="920" width="109" height="65" as="geometry" />
        </mxCell>
        <mxCell id="P2aj0PHAmEPESpZ3v1qP-21" value="time" style="ellipse;whiteSpace=wrap;html=1;" parent="1" vertex="1">
          <mxGeometry x="1480" y="785" width="90" height="40" as="geometry" />
        </mxCell>
        <mxCell id="P2aj0PHAmEPESpZ3v1qP-22" value="room" style="ellipse;whiteSpace=wrap;html=1;" parent="1" vertex="1">
          <mxGeometry x="1480" y="850" width="90" height="40" as="geometry" />
        </mxCell>
        <mxCell id="P2aj0PHAmEPESpZ3v1qP-23" value="room type" style="ellipse;whiteSpace=wrap;html=1;" parent="1" vertex="1">
          <mxGeometry x="1470" y="900" width="90" height="40" as="geometry" />
        </mxCell>
        <mxCell id="T_jc96OK8rHvA-raHRe3-1" value="room vacancy rate" style="ellipse;whiteSpace=wrap;html=1;" parent="1" vertex="1">
          <mxGeometry x="1310" y="970" width="90" height="40" as="geometry" />
        </mxCell>
        <mxCell id="FTlaOAQWPCWwVqzFN4eG-2" value="" style="endArrow=classic;html=1;rounded=0;entryX=0;entryY=0.5;entryDx=0;entryDy=0;" parent="1" source="FTlaOAQWPCWwVqzFN4eG-1" target="P2aj0PHAmEPESpZ3v1qP-21" edge="1">
          <mxGeometry width="50" height="50" relative="1" as="geometry">
            <mxPoint x="1370" y="880" as="sourcePoint" />
            <mxPoint x="1420" y="830" as="targetPoint" />
          </mxGeometry>
        </mxCell>
        <mxCell id="FTlaOAQWPCWwVqzFN4eG-3" value="" style="endArrow=classic;html=1;rounded=0;entryX=0;entryY=0.5;entryDx=0;entryDy=0;exitX=1;exitY=0.5;exitDx=0;exitDy=0;" parent="1" source="FTlaOAQWPCWwVqzFN4eG-1" target="P2aj0PHAmEPESpZ3v1qP-22" edge="1">
          <mxGeometry width="50" height="50" relative="1" as="geometry">
            <mxPoint x="1390" y="920" as="sourcePoint" />
            <mxPoint x="1440" y="858" as="targetPoint" />
          </mxGeometry>
        </mxCell>
        <mxCell id="FTlaOAQWPCWwVqzFN4eG-4" value="" style="endArrow=classic;html=1;rounded=0;entryX=0;entryY=0.5;entryDx=0;entryDy=0;exitX=1;exitY=0.5;exitDx=0;exitDy=0;" parent="1" source="FTlaOAQWPCWwVqzFN4eG-1" target="P2aj0PHAmEPESpZ3v1qP-23" edge="1">
          <mxGeometry width="50" height="50" relative="1" as="geometry">
            <mxPoint x="1230" y="860" as="sourcePoint" />
            <mxPoint x="1280" y="810" as="targetPoint" />
          </mxGeometry>
        </mxCell>
        <mxCell id="FTlaOAQWPCWwVqzFN4eG-5" value="" style="endArrow=classic;html=1;rounded=0;exitX=1;exitY=0.462;exitDx=0;exitDy=0;exitPerimeter=0;entryX=0;entryY=0.5;entryDx=0;entryDy=0;" parent="1" source="P2aj0PHAmEPESpZ3v1qP-20" target="FTlaOAQWPCWwVqzFN4eG-1" edge="1">
          <mxGeometry width="50" height="50" relative="1" as="geometry">
            <mxPoint x="1259" y="960" as="sourcePoint" />
            <mxPoint x="1309" y="910" as="targetPoint" />
          </mxGeometry>
        </mxCell>
        <mxCell id="FTlaOAQWPCWwVqzFN4eG-6" value="time" style="ellipse;whiteSpace=wrap;html=1;" parent="1" vertex="1">
          <mxGeometry x="1470" y="960" width="90" height="40" as="geometry" />
        </mxCell>
        <mxCell id="FTlaOAQWPCWwVqzFN4eG-7" value="room" style="ellipse;whiteSpace=wrap;html=1;" parent="1" vertex="1">
          <mxGeometry x="1470" y="1020" width="90" height="40" as="geometry" />
        </mxCell>
        <mxCell id="FTlaOAQWPCWwVqzFN4eG-8" value="room type" style="ellipse;whiteSpace=wrap;html=1;" parent="1" vertex="1">
          <mxGeometry x="1470" y="1090" width="90" height="40" as="geometry" />
        </mxCell>
        <mxCell id="FTlaOAQWPCWwVqzFN4eG-9" value="" style="endArrow=classic;html=1;rounded=0;exitX=1;exitY=0.5;exitDx=0;exitDy=0;entryX=0;entryY=0.5;entryDx=0;entryDy=0;" parent="1" source="P2aj0PHAmEPESpZ3v1qP-20" target="T_jc96OK8rHvA-raHRe3-1" edge="1">
          <mxGeometry width="50" height="50" relative="1" as="geometry">
            <mxPoint x="1230" y="860" as="sourcePoint" />
            <mxPoint x="1280" y="810" as="targetPoint" />
          </mxGeometry>
        </mxCell>
        <mxCell id="FTlaOAQWPCWwVqzFN4eG-10" value="" style="endArrow=classic;html=1;rounded=0;exitX=1;exitY=0.5;exitDx=0;exitDy=0;entryX=0;entryY=0.5;entryDx=0;entryDy=0;" parent="1" source="T_jc96OK8rHvA-raHRe3-1" target="FTlaOAQWPCWwVqzFN4eG-6" edge="1">
          <mxGeometry width="50" height="50" relative="1" as="geometry">
            <mxPoint x="1360" y="1035" as="sourcePoint" />
            <mxPoint x="1410" y="985" as="targetPoint" />
          </mxGeometry>
        </mxCell>
        <mxCell id="FTlaOAQWPCWwVqzFN4eG-11" value="" style="endArrow=classic;html=1;rounded=0;exitX=1;exitY=0.5;exitDx=0;exitDy=0;entryX=0;entryY=0.5;entryDx=0;entryDy=0;" parent="1" source="T_jc96OK8rHvA-raHRe3-1" target="FTlaOAQWPCWwVqzFN4eG-7" edge="1">
          <mxGeometry width="50" height="50" relative="1" as="geometry">
            <mxPoint x="1379" y="1000" as="sourcePoint" />
            <mxPoint x="1430" y="980" as="targetPoint" />
          </mxGeometry>
        </mxCell>
        <mxCell id="FTlaOAQWPCWwVqzFN4eG-12" value="" style="endArrow=classic;html=1;rounded=0;exitX=1;exitY=0.5;exitDx=0;exitDy=0;entryX=0;entryY=0.5;entryDx=0;entryDy=0;" parent="1" source="T_jc96OK8rHvA-raHRe3-1" target="FTlaOAQWPCWwVqzFN4eG-8" edge="1">
          <mxGeometry width="50" height="50" relative="1" as="geometry">
            <mxPoint x="1379" y="1000" as="sourcePoint" />
            <mxPoint x="1430" y="1030" as="targetPoint" />
          </mxGeometry>
        </mxCell>
        <mxCell id="FTlaOAQWPCWwVqzFN4eG-13" value="customer ratings" style="ellipse;whiteSpace=wrap;html=1;" parent="1" vertex="1">
          <mxGeometry x="1299" y="1070" width="90" height="40" as="geometry" />
        </mxCell>
        <mxCell id="41B4hqCaNAUca-oPq-kt-1" value="" style="endArrow=classic;html=1;rounded=0;exitX=1;exitY=0.5;exitDx=0;exitDy=0;entryX=0;entryY=0.5;entryDx=0;entryDy=0;" parent="1" source="P2aj0PHAmEPESpZ3v1qP-20" target="FTlaOAQWPCWwVqzFN4eG-13" edge="1">
          <mxGeometry width="50" height="50" relative="1" as="geometry">
            <mxPoint x="1260" y="947.5999755859375" as="sourcePoint" />
            <mxPoint x="1280" y="1010" as="targetPoint" />
          </mxGeometry>
        </mxCell>
        <mxCell id="41B4hqCaNAUca-oPq-kt-4" value="saller" style="shape=umlActor;verticalLabelPosition=bottom;verticalAlign=top;html=1;outlineConnect=0;" parent="1" vertex="1">
          <mxGeometry x="850" y="1295" width="30" height="60" as="geometry" />
        </mxCell>
        <mxCell id="41B4hqCaNAUca-oPq-kt-5" value="receptionist" style="shape=umlActor;verticalLabelPosition=bottom;verticalAlign=top;html=1;outlineConnect=0;" parent="1" vertex="1">
          <mxGeometry x="840" y="1050" width="30" height="60" as="geometry" />
        </mxCell>
        <mxCell id="41B4hqCaNAUca-oPq-kt-6" value="find room" style="ellipse;whiteSpace=wrap;html=1;" parent="1" vertex="1">
          <mxGeometry x="1193.5" y="1120" width="81" height="50" as="geometry" />
        </mxCell>
        <mxCell id="41B4hqCaNAUca-oPq-kt-8" value="checkin" style="ellipse;whiteSpace=wrap;html=1;" parent="1" vertex="1">
          <mxGeometry x="1190.5" y="1180" width="81" height="50" as="geometry" />
        </mxCell>
        <mxCell id="41B4hqCaNAUca-oPq-kt-9" value="checkout" style="ellipse;whiteSpace=wrap;html=1;" parent="1" vertex="1">
          <mxGeometry x="1190" y="1240" width="81" height="50" as="geometry" />
        </mxCell>
        <mxCell id="41B4hqCaNAUca-oPq-kt-10" value="print bill" style="ellipse;whiteSpace=wrap;html=1;" parent="1" vertex="1">
          <mxGeometry x="1178" y="1300" width="81" height="50" as="geometry" />
        </mxCell>
        <mxCell id="41B4hqCaNAUca-oPq-kt-11" value="reserved room" style="ellipse;whiteSpace=wrap;html=1;" parent="1" vertex="1">
          <mxGeometry x="1178" y="1360" width="112" height="50" as="geometry" />
        </mxCell>
        <mxCell id="41B4hqCaNAUca-oPq-kt-12" value="find room(available)" style="ellipse;whiteSpace=wrap;html=1;" parent="1" vertex="1">
          <mxGeometry x="1178" y="1420" width="112" height="50" as="geometry" />
        </mxCell>
        <mxCell id="41B4hqCaNAUca-oPq-kt-13" value="" style="endArrow=classic;html=1;rounded=0;entryX=0;entryY=0.5;entryDx=0;entryDy=0;" parent="1" target="P2aj0PHAmEPESpZ3v1qP-7" edge="1">
          <mxGeometry width="50" height="50" relative="1" as="geometry">
            <mxPoint x="880" y="800" as="sourcePoint" />
            <mxPoint x="970" y="790" as="targetPoint" />
          </mxGeometry>
        </mxCell>
        <mxCell id="41B4hqCaNAUca-oPq-kt-14" value="" style="endArrow=classic;html=1;rounded=0;entryX=0;entryY=0.5;entryDx=0;entryDy=0;" parent="1" target="P2aj0PHAmEPESpZ3v1qP-9" edge="1">
          <mxGeometry width="50" height="50" relative="1" as="geometry">
            <mxPoint x="880" y="800" as="sourcePoint" />
            <mxPoint x="1060" y="940" as="targetPoint" />
          </mxGeometry>
        </mxCell>
        <mxCell id="41B4hqCaNAUca-oPq-kt-15" value="" style="endArrow=classic;html=1;rounded=0;entryX=0;entryY=0.5;entryDx=0;entryDy=0;" parent="1" target="P2aj0PHAmEPESpZ3v1qP-20" edge="1">
          <mxGeometry width="50" height="50" relative="1" as="geometry">
            <mxPoint x="880" y="800" as="sourcePoint" />
            <mxPoint x="1060" y="940" as="targetPoint" />
          </mxGeometry>
        </mxCell>
        <mxCell id="41B4hqCaNAUca-oPq-kt-16" value="" style="endArrow=classic;html=1;rounded=0;entryX=0;entryY=0.5;entryDx=0;entryDy=0;" parent="1" target="FTlaOAQWPCWwVqzFN4eG-1" edge="1">
          <mxGeometry width="50" height="50" relative="1" as="geometry">
            <mxPoint x="1370" y="880" as="sourcePoint" />
            <mxPoint x="1480" y="805" as="targetPoint" />
          </mxGeometry>
        </mxCell>
        <mxCell id="FTlaOAQWPCWwVqzFN4eG-1" value="revenue" style="ellipse;whiteSpace=wrap;html=1;" parent="1" vertex="1">
          <mxGeometry x="1321" y="860" width="90" height="40" as="geometry" />
        </mxCell>
        <mxCell id="41B4hqCaNAUca-oPq-kt-17" value="" style="endArrow=classic;html=1;rounded=0;" parent="1" edge="1">
          <mxGeometry width="50" height="50" relative="1" as="geometry">
            <mxPoint x="880" y="1090" as="sourcePoint" />
            <mxPoint x="1200" y="640" as="targetPoint" />
          </mxGeometry>
        </mxCell>
        <mxCell id="41B4hqCaNAUca-oPq-kt-18" value="" style="endArrow=classic;html=1;rounded=0;entryX=0;entryY=0.5;entryDx=0;entryDy=0;" parent="1" target="41B4hqCaNAUca-oPq-kt-6" edge="1">
          <mxGeometry width="50" height="50" relative="1" as="geometry">
            <mxPoint x="880" y="1090" as="sourcePoint" />
            <mxPoint x="1060" y="940" as="targetPoint" />
          </mxGeometry>
        </mxCell>
        <mxCell id="41B4hqCaNAUca-oPq-kt-19" value="" style="endArrow=classic;html=1;rounded=0;entryX=0;entryY=0.5;entryDx=0;entryDy=0;" parent="1" target="41B4hqCaNAUca-oPq-kt-8" edge="1">
          <mxGeometry width="50" height="50" relative="1" as="geometry">
            <mxPoint x="880" y="1090" as="sourcePoint" />
            <mxPoint x="1060" y="940" as="targetPoint" />
          </mxGeometry>
        </mxCell>
        <mxCell id="41B4hqCaNAUca-oPq-kt-20" value="" style="endArrow=classic;html=1;rounded=0;entryX=0;entryY=0.5;entryDx=0;entryDy=0;" parent="1" target="41B4hqCaNAUca-oPq-kt-9" edge="1">
          <mxGeometry width="50" height="50" relative="1" as="geometry">
            <mxPoint x="890" y="1090" as="sourcePoint" />
            <mxPoint x="1060" y="1090" as="targetPoint" />
          </mxGeometry>
        </mxCell>
        <mxCell id="41B4hqCaNAUca-oPq-kt-21" value="" style="endArrow=classic;html=1;rounded=0;entryX=0;entryY=0.5;entryDx=0;entryDy=0;" parent="1" target="41B4hqCaNAUca-oPq-kt-10" edge="1">
          <mxGeometry width="50" height="50" relative="1" as="geometry">
            <mxPoint x="880" y="1090" as="sourcePoint" />
            <mxPoint x="1060" y="1090" as="targetPoint" />
          </mxGeometry>
        </mxCell>
        <mxCell id="41B4hqCaNAUca-oPq-kt-22" value="" style="endArrow=classic;html=1;rounded=0;" parent="1" edge="1">
          <mxGeometry width="50" height="50" relative="1" as="geometry">
            <mxPoint x="900" y="1330" as="sourcePoint" />
            <mxPoint x="1200" y="636.5713936941964" as="targetPoint" />
          </mxGeometry>
        </mxCell>
        <mxCell id="41B4hqCaNAUca-oPq-kt-23" value="" style="endArrow=classic;html=1;rounded=0;entryX=0;entryY=0.5;entryDx=0;entryDy=0;" parent="1" target="41B4hqCaNAUca-oPq-kt-11" edge="1">
          <mxGeometry width="50" height="50" relative="1" as="geometry">
            <mxPoint x="900" y="1330" as="sourcePoint" />
            <mxPoint x="1060" y="1300" as="targetPoint" />
          </mxGeometry>
        </mxCell>
        <mxCell id="41B4hqCaNAUca-oPq-kt-24" value="" style="endArrow=classic;html=1;rounded=0;entryX=0;entryY=0.5;entryDx=0;entryDy=0;" parent="1" target="41B4hqCaNAUca-oPq-kt-12" edge="1">
          <mxGeometry width="50" height="50" relative="1" as="geometry">
            <mxPoint x="900" y="1330" as="sourcePoint" />
            <mxPoint x="1060" y="1300" as="targetPoint" />
          </mxGeometry>
        </mxCell>
        <mxCell id="j-gsnRSfXV5rIYU55koA-1" value="client" style="shape=umlActor;verticalLabelPosition=bottom;verticalAlign=top;html=1;outlineConnect=0;" vertex="1" parent="1">
          <mxGeometry x="850" y="910" width="30" height="60" as="geometry" />
        </mxCell>
        <mxCell id="j-gsnRSfXV5rIYU55koA-3" value="" style="endArrow=block;dashed=1;endFill=0;endSize=12;html=1;rounded=0;entryX=0;entryY=0.5;entryDx=0;entryDy=0;" edge="1" parent="1" source="j-gsnRSfXV5rIYU55koA-1" target="41B4hqCaNAUca-oPq-kt-6">
          <mxGeometry width="160" relative="1" as="geometry">
            <mxPoint x="1060" y="1150" as="sourcePoint" />
            <mxPoint x="1220" y="1150" as="targetPoint" />
          </mxGeometry>
        </mxCell>
        <mxCell id="j-gsnRSfXV5rIYU55koA-4" value="" style="endArrow=block;dashed=1;endFill=0;endSize=12;html=1;rounded=0;" edge="1" parent="1">
          <mxGeometry width="160" relative="1" as="geometry">
            <mxPoint x="880" y="950" as="sourcePoint" />
            <mxPoint x="1190" y="1200" as="targetPoint" />
          </mxGeometry>
        </mxCell>
        <mxCell id="j-gsnRSfXV5rIYU55koA-5" value="" style="endArrow=block;dashed=1;endFill=0;endSize=12;html=1;rounded=0;entryX=0;entryY=0.5;entryDx=0;entryDy=0;" edge="1" parent="1" target="41B4hqCaNAUca-oPq-kt-9">
          <mxGeometry width="160" relative="1" as="geometry">
            <mxPoint x="880" y="950" as="sourcePoint" />
            <mxPoint x="1214" y="1165" as="targetPoint" />
          </mxGeometry>
        </mxCell>
      </root>
    </mxGraphModel>
  </diagram>
</mxfile>
